Coordinates
version=1
nRows=26
nColumns=24
inDegrees=yes

Units are S.I. units (second, meters, Newtons, ...)
Angles are in degrees.

endheader
time	pelvis_tilt	pelvis_list	pelvis_rotation	pelvis_tx	pelvis_ty	pelvis_tz	hip_flexion_r	hip_adduction_r	hip_rotation_r	knee_angle_r	ankle_angle_r	subtalar_angle_r	mtp_angle_r	hip_flexion_l	hip_adduction_l	hip_rotation_l	knee_angle_l	ankle_angle_l	subtalar_angle_l	mtp_angle_l	lumbar_extension	lumbar_bending	lumbar_rotation
      1.17050000	      0.00979855	     -2.90165089	     -2.25630319	     -0.06227961	      1.00392949	      0.35222206	    -16.78815928	      6.72171748	      4.05912560	     -6.47368463	     14.92900961	     -3.29013789	      3.51390046	     20.23596170	     -3.74220774	      0.40053363	      8.05643801	      1.63842310	     -7.09045233	     -2.23657403	     -3.49924715	      0.64530363	      7.43521592
      1.17466667	      0.06017983	     -2.70728406	     -2.35680317	     -0.05654520	      1.00322358	      0.35178362	    -16.93208762	      6.44508669	      3.91356966	     -6.99084893	     15.25565006	     -2.93538556	      3.47321953	     20.33339165	     -3.48676110	      0.45414159	      7.33343216	      1.84356004	     -7.02698225	     -2.09411001	     -3.50682385	      0.41347311	      7.68266217
      1.17883333	      0.10214263	     -2.50036613	     -2.44420262	     -0.05076533	      1.00252902	      0.35133088	    -17.07515213	      6.16707839	      3.84838481	     -7.48850735	     15.46966996	     -2.80361959	      3.42724079	     20.44735965	     -3.21371221	      0.52700184	      6.55311578	      1.98456609	     -7.03044552	     -1.88294445	     -3.51030598	      0.17181412	      7.77742407
      1.18300000	      0.16313345	     -2.29332308	     -2.52280867	     -0.04496393	      1.00188485	      0.35088325	    -17.25067283	      5.90062570	      3.88172915	     -7.95701639	     15.55363291	     -2.91045254	      3.42273632	     20.53931684	     -2.93860255	      0.65361113	      5.74244919	      2.03826627	     -7.16668763	     -1.83974951	     -3.55201021	     -0.06241945	      7.81406093
      1.18716667	      0.22648677	     -2.07604856	     -2.58985388	     -0.03911230	      1.00126836	      0.35041906	    -17.41260400	      5.62833630	      3.88133395	     -8.46168726	     15.65027383	     -2.98029758	      3.42034514	     20.64064736	     -2.64832614	      0.75390122	      4.87516834	      2.06413555	     -7.28171684	     -1.77678104	     -3.55805034	     -0.33765571	      7.88376552
      1.19133333	      0.26336134	     -1.84184367	     -2.65988976	     -0.03322757	      1.00064413	      0.34988988	    -17.49705324	      5.32467800	      3.74928839	     -9.07186888	     15.85737368	     -2.73872897	      3.42036348	     20.79338398	     -2.33702206	      0.74942928	      3.93733803	      2.06420215	     -7.25338473	     -1.40729555	     -3.53470195	     -0.59899038	      8.11324962
      1.19550000	      0.33744148	     -1.60708580	     -2.70685916	     -0.02730872	      1.00009463	      0.34937837	    -17.65323896	      5.04458823	      3.76462484	     -9.61174303	     15.87079530	     -2.89402687	      3.42181205	     20.89486080	     -2.02047993	      0.83650069	      3.00754081	      1.98421580	     -7.39687051	     -1.33915646	     -3.57652426	     -0.87071456	      8.12503348
      1.19966667	      0.40237871	     -1.37036094	     -2.74873104	     -0.02135335	      0.99956788	      0.34882796	    -17.78257575	      4.76353488	      3.76784628	    -10.18650094	     15.86077263	     -3.02893749	      3.42685869	     21.01035392	     -1.69852905	      0.90597091	      2.05650327	      1.83888971	     -7.53491829	     -1.26963460	     -3.59755388	     -1.14003244	      8.15735244
      1.20383333	      0.47449847	     -1.12351485	     -2.78069190	     -0.01535995	      0.99906358	      0.34825380	    -17.89372919	      4.47114301	      3.70491528	    -10.82168744	     15.92848434	     -3.02164037	      3.92155315	     21.11691307	     -1.36394464	      0.95913912	      1.11372376	      1.46503272	     -7.77086364	      2.43002537	     -3.59944598	     -1.44584554	      8.19830391
      1.20800000	      0.53171246	     -0.87947672	     -2.80929715	     -0.00933692	      0.99859271	      0.34766481	    -17.98224257	      4.18993613	      3.68686910	    -11.46045786	     15.81027328	     -3.19377787	      3.92496264	     21.24636256	     -1.03180066	      1.01117063	      0.13102143	      1.26206224	     -7.91248298	      2.44002238	     -3.59437376	     -1.72701533	      8.24600264
      1.21216667	      0.57882625	     -0.63158582	     -2.82706276	     -0.00327673	      0.99814077	      0.34704901	    -18.04717948	      3.91090042	      3.67570942	    -12.12820631	     15.70250452	     -3.35620304	      3.94165894	     21.38192168	     -0.69298571	      1.06861730	     -0.84210333	      0.94692700	     -8.08220117	      2.46377774	     -3.54986260	     -2.03597002	      8.29372419
      1.21633333	      0.60571014	     -0.36896648	     -2.83877429	      0.00281687	      0.99769803	      0.34640304	    -18.07018869	      3.61925720	      3.65365226	    -12.83497212	     15.56353532	     -3.50395595	      3.98554802	     21.52862708	     -0.33620582	      1.16364396	     -1.79604256	      0.55442039	     -8.33354561	      2.51598267	     -3.50255390	     -2.33681225	      8.34213983
      1.22050000	      0.66031937	     -0.11392140	     -2.84110315	      0.00891255	      0.99733062	      0.34572994	    -18.09988031	      3.33613271	      3.60381878	    -13.58496785	     15.38654313	     -3.65179756	      4.04832120	     21.64254131	      0.01634576	      1.26828565	     -2.74502717	      0.13647796	     -8.60519558	      2.58020745	     -3.48155374	     -2.63605272	      8.36587616
      1.22466667	      0.69179909	      0.12196739	     -2.84535866	      0.01499842	      0.99697507	      0.34501629	    -18.06720644	      3.07073213	      3.53514761	    -14.40706597	     15.19072068	     -3.77860892	      4.23773530	     21.76384686	      0.35424654	      1.46342555	     -3.65787806	     -0.38141702	     -9.09415248	      2.74479222	     -3.43212178	     -2.87554382	      8.38290096
      1.22883333	      0.78488161	      0.39114535	     -2.83288322	      0.02114054	      0.99675053	      0.34429360	    -18.09869030	      2.77332432	      3.43600494	    -15.22712818	     14.91975426	     -3.95089340	      4.28789572	     21.83416849	      0.72341991	      1.49747510	     -4.61317193	     -0.73012094	     -9.21627176	      2.78164216	     -3.44716848	     -3.19710449	      8.38212453
      1.23300000	      0.80516864	      0.65263925	     -2.82112535	      0.02728117	      0.99646678	      0.34352267	    -18.00989439	      2.48153899	      3.32385297	    -16.12973882	     14.65322171	     -4.01906033	      4.58710126	     21.95403833	      1.09252698	      1.68864172	     -5.50702465	     -1.26638049	     -9.66998848	      2.96023668	     -3.38910724	     -3.47683836	      8.35324337
      1.23716667	      0.88647036	      0.93827306	     -2.79878270	      0.03347267	      0.99632463	      0.34275102	    -17.98323021	      2.16477392	      3.19130515	    -17.02820461	     14.27627729	     -4.15025616	      4.70233265	     22.01740718	      1.48069769	      1.73360723	     -6.43363645	     -1.60520679	     -9.77723415	      3.01651718	     -3.39723732	     -3.82628733	      8.34651013
      1.24133333	      0.95374087	      1.20868647	     -2.77441106	      0.03964114	      0.99619521	      0.34192972	    -17.89785943	      1.85575753	      3.00546859	    -17.99690968	     13.81276631	     -4.28994331	      8.21312423	     22.08155191	      1.86122354	      1.85579012	     -7.33010811	     -2.03935431	    -10.12182147	      4.36141512	     -3.38396510	     -4.11782018	      8.31426195
      1.24550000	      1.03679864	      1.48749705	     -2.74842140	      0.04582052	      0.99613301	      0.34108864	    -17.79545852	      1.52768331	      2.77031095	    -19.03583451	     13.41771921	     -4.26346848	      8.26843057	     22.13381908	      2.24463018	      1.88768302	     -8.24902509	     -2.33157458	    -10.24012180	      4.34666424	     -3.39371077	     -4.42288146	      8.27520525
      1.24966667	      1.11928202	      1.76767399	     -2.71570000	      0.05201022	      0.99611583	      0.34022024	    -17.66642676	      1.19497981	      2.51194284	    -20.11512647	     12.96117076	     -4.24665311	      8.39087666	     22.17404567	      2.63305052	      1.94323322	     -9.15120162	     -2.58816510	    -10.39108607	      4.32181051	     -3.40133367	     -4.73362714	      8.22722898
      1.25383333	      1.19930654	      2.05074387	     -2.67884555	      0.05820584	      0.99613930	      0.33932903	    -17.50265200	      0.84982010	      2.21408366	    -21.24599483	     12.45762918	     -4.18796468	      8.61305319	     22.20908158	      3.02407004	      1.98135255	    -10.04580699	     -2.78619144	    -10.51059034	      4.27804029	     -3.40595774	     -5.04526873	      8.16955053
      1.25800000	      1.34164798	      2.32230117	     -2.64544277	      0.06439265	      0.99629848	      0.33845169	    -17.39315405	      0.51310802	      1.93228957	    -22.37837773	     11.80959230	     -4.23222142	      8.66764725	     22.16546906	      3.40087346	      1.98140548	    -10.92908503	     -2.88750535	    -10.58290541	      4.26414631	     -3.47682216	     -5.34925052	      8.15709211
      1.26216667	      1.45480129	      2.61722968	     -2.61556430	      0.07058656	      0.99643905	      0.33750959	    -17.18855405	      0.11639392	      1.52027196	    -23.63384484	     11.25036996	     -3.94685681	      9.27330961	     22.13360723	      3.80367234	      1.98345042	    -11.77715721	     -2.92813482	    -10.62949855	      4.13009818	     -3.53073852	     -5.64793454	      8.00777597
      1.26633333	      1.59609021	      2.88072132	     -2.55276343	      0.07675623	      0.99667310	      0.33657699	    -17.02347802	     -0.22125895	      1.16672299	    -24.84340763	     10.48558634	     -4.00582469	      9.34542602	     22.06987278	      4.17951141	      1.99017126	    -12.62716926	     -2.97796653	    -10.66999441	      4.11025075	     -3.61182945	     -5.96149317	      8.00945401
      1.27050000	      1.74019415	      3.14683996	     -2.48999769	      0.08291587	      0.99694372	      0.33559718	    -16.82048200	     -0.59171019	      0.72954503	    -26.10510096	      9.58646080	     -3.92762492	     13.43139063	     21.99298875	      4.55106368	      1.92517459	    -13.46740576	     -2.83725214	    -10.42894191	      3.04773791	     -3.72772676	     -6.23402928	      7.81921194
      1.27466667	      1.87930893	      3.41209258	     -2.44013269	      0.08905986	      0.99724338	      0.33462677	    -16.57767098	     -0.97159448	      0.30447261	    -27.42571413	      8.74219634	     -3.84921389	     13.44373012	     21.88216331	      4.93114756	      1.94497282	    -14.23187964	     -2.77365616	    -10.54147765	      3.04540998	     -3.79240722	     -6.53634141	      7.82681242
